<svg width="800" height="400" viewBox="0 0 800 400" xmlns="http://www.w3.org/2000/svg"><mask id="satori_om-id"><rect x="0" y="0" width="800" height="400" fill="#fff"/></mask><rect x="0" y="0" width="800" height="400" fill="#fff"/><mask id="satori_om-id-0"><rect x="282" y="201" width="236" height="39" fill="#fff"/></mask><g  ><path fill="black" d="M288.9 232L284.0 232L284.0 208.7L299.4 208.7L299.4 212.8L288.9 212.8L288.9 218.3L298.4 218.3L298.4 222.4L288.9 222.4L288.9 232ZM312.8 224.6L312.8 224.6L312.8 214.5L317.6 214.5L317.6 232L312.9 232L312.9 228.8L312.8 228.8Q312.2 230.4 310.8 231.3Q309.4 232.2 307.5 232.2L307.5 232.2Q305.7 232.2 304.4 231.4Q303.1 230.6 302.3 229.2Q301.6 227.7 301.6 225.7L301.6 225.7L301.6 214.5L306.4 214.5L306.4 224.8Q306.4 226.3 307.2 227.2Q308.0 228.1 309.4 228.1L309.4 228.1Q310.3 228.1 311.1 227.7Q311.8 227.3 312.3 226.5Q312.8 225.7 312.8 224.6ZM320.2 214.5L330.7 214.5L330.7 218.2L320.2 218.2L320.2 214.5ZM322.6 227.3L322.6 210.4L327.5 210.4L327.5 226.6Q327.5 227.3 327.7 227.7Q327.9 228.0 328.2 228.2Q328.6 228.3 329.1 228.3L329.1 228.3Q329.4 228.3 329.8 228.3Q330.1 228.2 330.3 228.2L330.3 228.2L331.1 231.8Q330.7 231.9 330.0 232.1Q329.4 232.2 328.4 232.2L328.4 232.2Q326.7 232.3 325.4 231.8Q324.1 231.2 323.3 230.1Q322.6 229.0 322.6 227.3L322.6 227.3ZM345.1 224.6L345.1 224.6L345.1 214.5L349.9 214.5L349.9 232L345.3 232L345.3 228.8L345.1 228.8Q344.5 230.4 343.1 231.3Q341.8 232.2 339.8 232.2L339.8 232.2Q338.0 232.2 336.7 231.4Q335.4 230.6 334.6 229.2Q333.9 227.7 333.9 225.7L333.9 225.7L333.9 214.5L338.7 214.5L338.7 224.8Q338.7 226.3 339.6 227.2Q340.4 228.1 341.8 228.1L341.8 228.1Q342.6 228.1 343.4 227.7Q344.1 227.3 344.6 226.5Q345.1 225.7 345.1 224.6ZM358.6 232L353.8 232L353.8 214.5L358.5 214.5L358.5 217.6L358.7 217.6Q359.1 216.0 360.3 215.1Q361.4 214.3 362.9 214.3L362.9 214.3Q363.2 214.3 363.6 214.3Q364.1 214.4 364.4 214.5L364.4 214.5L364.4 218.8Q364.0 218.7 363.4 218.6Q362.8 218.5 362.3 218.5L362.3 218.5Q361.3 218.5 360.4 219.0Q359.6 219.4 359.1 220.2Q358.6 221.1 358.6 222.1L358.6 222.1L358.6 232ZM374.0 232.3L374.0 232.3Q371.3 232.3 369.4 231.2Q367.4 230.1 366.4 228.1Q365.3 226.1 365.3 223.4L365.3 223.4Q365.3 220.7 366.4 218.6Q367.4 216.6 369.3 215.5Q371.2 214.3 373.8 214.3L373.8 214.3Q375.5 214.3 377.0 214.9Q378.5 215.4 379.6 216.5Q380.8 217.6 381.4 219.3Q382.0 221.0 382.0 223.2L382.0 223.2L382.0 224.5L367.3 224.5L367.3 221.5L377.5 221.5Q377.5 220.5 377.0 219.7Q376.5 218.9 375.7 218.4Q374.9 217.9 373.9 217.9L373.9 217.9Q372.8 217.9 371.9 218.4Q371.1 218.9 370.6 219.8Q370.1 220.6 370.1 221.7L370.1 221.7L370.1 224.5Q370.1 225.8 370.6 226.8Q371.1 227.7 372.0 228.2Q372.9 228.7 374.1 228.7L374.1 228.7Q374.9 228.7 375.6 228.5Q376.2 228.3 376.7 227.8Q377.2 227.4 377.4 226.7L377.4 226.7L381.9 227Q381.6 228.6 380.5 229.8Q379.5 231.0 377.8 231.7Q376.2 232.3 374.0 232.3Z M399.5 232L394.6 232L394.6 208.7L410 208.7L410 212.8L399.5 212.8L399.5 218.3L409.0 218.3L409.0 222.4L399.5 222.4L399.5 232ZM417.8 232L412.9 232L412.9 214.5L417.6 214.5L417.6 217.6L417.8 217.6Q418.3 216.0 419.4 215.1Q420.5 214.3 422.0 214.3L422.0 214.3Q422.4 214.3 422.8 214.3Q423.2 214.4 423.5 214.5L423.5 214.5L423.5 218.8Q423.2 218.7 422.6 218.6Q422.0 218.5 421.5 218.5L421.5 218.5Q420.4 218.5 419.6 219.0Q418.7 219.4 418.2 220.2Q417.8 221.1 417.8 222.1L417.8 222.1L417.8 232ZM433.1 232.3L433.1 232.3Q430.4 232.3 428.5 231.2Q426.6 230.1 425.5 228.1Q424.5 226.0 424.5 223.3L424.5 223.3Q424.5 220.6 425.5 218.6Q426.6 216.6 428.5 215.4Q430.4 214.3 433.1 214.3L433.1 214.3Q435.7 214.3 437.6 215.4Q439.6 216.6 440.6 218.6Q441.7 220.6 441.7 223.3L441.7 223.3Q441.7 226.0 440.6 228.1Q439.6 230.1 437.6 231.2Q435.7 232.3 433.1 232.3ZM433.1 228.6L433.1 228.6Q434.3 228.6 435.1 227.9Q435.9 227.2 436.3 226.0Q436.7 224.8 436.7 223.3L436.7 223.3Q436.7 221.8 436.3 220.6Q435.9 219.4 435.1 218.7Q434.3 218.0 433.1 218.0L433.1 218.0Q431.9 218.0 431.1 218.7Q430.2 219.4 429.8 220.6Q429.4 221.8 429.4 223.3L429.4 223.3Q429.4 224.8 429.8 226.0Q430.2 227.2 431.1 227.9Q431.9 228.6 433.1 228.6ZM449.7 221.9L449.7 221.9L449.7 232L444.8 232L444.8 214.5L449.4 214.5L449.4 217.6L449.6 217.6Q450.2 216.1 451.6 215.2Q452.9 214.3 454.9 214.3L454.9 214.3Q456.7 214.3 458.1 215.1Q459.4 215.9 460.2 217.4Q460.9 218.9 460.9 220.9L460.9 220.9L460.9 232L456.1 232L456.1 221.8Q456.1 220.1 455.2 219.2Q454.4 218.3 453.0 218.3L453.0 218.3Q452.0 218.3 451.2 218.8Q450.5 219.2 450.1 220.0Q449.7 220.8 449.7 221.9ZM463.5 214.5L474.0 214.5L474.0 218.2L463.5 218.2L463.5 214.5ZM465.9 227.3L465.9 210.4L470.7 210.4L470.7 226.6Q470.7 227.3 470.9 227.7Q471.1 228.0 471.5 228.2Q471.9 228.3 472.4 228.3L472.4 228.3Q472.7 228.3 473.0 228.3Q473.4 228.2 473.6 228.2L473.6 228.2L474.3 231.8Q474.0 231.9 473.3 232.1Q472.6 232.2 471.7 232.2L471.7 232.2Q469.9 232.3 468.6 231.8Q467.3 231.2 466.6 230.1Q465.9 229.0 465.9 227.3L465.9 227.3ZM482.0 232L477.1 232L477.1 214.5L482.0 214.5L482.0 232ZM479.6 212.3L479.6 212.3Q478.5 212.3 477.7 211.6Q477.0 210.9 477.0 209.8L477.0 209.8Q477.0 208.8 477.7 208.1Q478.5 207.4 479.6 207.4L479.6 207.4Q480.7 207.4 481.4 208.1Q482.2 208.8 482.2 209.8L482.2 209.8Q482.2 210.9 481.4 211.6Q480.7 212.3 479.6 212.3ZM493.8 232.3L493.8 232.3Q491.1 232.3 489.2 231.2Q487.2 230.1 486.2 228.1Q485.1 226.1 485.1 223.4L485.1 223.4Q485.1 220.7 486.2 218.6Q487.2 216.6 489.1 215.5Q491.0 214.3 493.6 214.3L493.6 214.3Q495.3 214.3 496.8 214.9Q498.3 215.4 499.4 216.5Q500.6 217.6 501.2 219.3Q501.8 221.0 501.8 223.2L501.8 223.2L501.8 224.5L487.1 224.5L487.1 221.5L497.3 221.5Q497.3 220.5 496.8 219.7Q496.4 218.9 495.6 218.4Q494.7 217.9 493.7 217.9L493.7 217.9Q492.6 217.9 491.7 218.4Q490.9 218.9 490.4 219.8Q489.9 220.6 489.9 221.7L489.9 221.7L489.9 224.5Q489.9 225.8 490.4 226.8Q490.9 227.7 491.8 228.2Q492.7 228.7 493.9 228.7L493.9 228.7Q494.7 228.7 495.4 228.5Q496.0 228.3 496.5 227.8Q497.0 227.4 497.2 226.7L497.2 226.7L501.7 227Q501.4 228.6 500.3 229.8Q499.3 231.0 497.6 231.7Q496.0 232.3 493.8 232.3ZM509.8 232L505.0 232L505.0 214.5L509.7 214.5L509.7 217.6L509.9 217.6Q510.3 216.0 511.5 215.1Q512.6 214.3 514.0 214.3L514.0 214.3Q514.4 214.3 514.8 214.3Q515.2 214.4 515.6 214.5L515.6 214.5L515.6 218.8Q515.2 218.7 514.6 218.6Q514.0 218.5 513.5 218.5L513.5 218.5Q512.5 218.5 511.6 219.0Q510.8 219.4 510.3 220.2Q509.8 221.1 509.8 222.1L509.8 222.1L509.8 232Z "/></g></svg>