<?xml version="1.0" standalone="no"?>
<!DOCTYPE svg PUBLIC "-//W3C//DTD SVG 20010904//EN" "http://www.w3.org/TR/2001/REC-SVG-20010904/DTD/svg10.dtd">
<svg version="1.0" xmlns="http://www.w3.org/2000/svg" width="849.000000pt" height="260.000000pt"
  viewBox="0 0 849.000000 260.000000" preserveAspectRatio="xMidYMid meet">

  <g transform="translate(0.000000,260.000000) scale(0.100000,-0.100000)" fill="#000000" stroke="none">
    <path d="M104 2321 c-2 -2 -4 -449 -4 -993 l0 -988 170 0 170 0 0 499 0 499
33 5 c17 3 133 5 256 4 l225 -1 7 27 c4 15 6 80 6 144 l-2 118 -263 3 -262 2
2 193 3 192 277 3 277 2 3 123 c2 67 1 132 -1 144 l-3 23 -445 2 c-245 2 -447
1 -449 -1z" />
    <path d="M1134 2321 c-2 -2 -4 -449 -4 -993 l0 -988 168 2 167 3 3 496 2 497
31 6 c17 3 132 6 256 6 l224 0 -3 143 -3 142 -255 5 c-140 3 -254 8 -252 13 1
4 2 90 2 192 l0 185 277 2 276 3 5 142 4 143 -447 2 c-246 2 -449 1 -451 -1z" />
    <path d="M3565 2318 c-3 -7 -4 -231 -3 -498 l3 -485 115 0 115 0 3 193 2 192
195 0 195 0 0 95 0 95 -195 0 -195 0 0 115 0 115 228 2 227 3 3 78 c2 50 -1
84 -9 93 -16 19 -677 21 -684 2z" />
    <path d="M2124 2268 c3 -29 6 -95 6 -145 l0 -93 183 -2 182 -3 -3 -842 -3
-843 171 0 170 0 0 845 0 845 190 0 190 0 0 145 0 145 -546 0 -547 0 7 -52z" />
    <path d="M5158 2168 l-3 -103 -53 -3 -53 -3 3 -72 3 -72 53 -3 52 -3 0 -209
c0 -188 2 -215 21 -265 28 -76 76 -111 164 -120 73 -8 181 12 179 33 -1 6 -2
41 -2 77 l-2 65 -53 0 c-45 0 -58 4 -78 26 -23 25 -24 31 -27 209 l-3 184 78
3 78 3 3 72 3 72 -78 3 -78 3 -3 103 -3 102 -99 0 -99 0 -3 -102z" />
    <path d="M7173 2066 c-181 -46 -295 -230 -266 -429 27 -188 123 -289 311 -328
47 -10 72 -10 114 -1 123 28 225 98 270 186 25 50 17 56 -79 56 -68 0 -76 -2
-118 -35 -104 -79 -224 -54 -291 61 -16 27 -23 49 -18 54 6 6 127 11 269 12
l260 3 3 49 c9 145 -72 287 -200 350 -68 33 -176 43 -255 22z m159 -158 c49
-15 98 -68 98 -108 l0 -30 -164 0 c-95 0 -167 4 -171 10 -7 11 33 77 63 103
39 35 108 45 174 25z" />
    <path d="M6784 2061 c-38 -9 -93 -42 -119 -71 -29 -32 -42 -25 -41 23 l1 42
-97 3 -98 3 -2 -356 c-2 -195 -1 -360 0 -365 2 -6 44 -10 98 -10 l94 0 0 191
c0 117 5 207 12 230 24 82 108 135 202 127 l41 -3 0 95 0 95 -30 2 c-16 1 -44
-2 -61 -6z" />
    <path d="M4289 2048 c-2 -7 -2 -137 1 -289 l5 -276 30 -48 c66 -107 169 -150
287 -120 34 9 84 29 110 45 l47 28 3 -26 c3 -27 3 -27 101 -30 l97 -3 0 366 0
365 -95 0 -95 0 0 -240 c0 -265 -3 -279 -61 -321 -44 -31 -136 -33 -176 -3
-59 43 -63 65 -63 327 l0 237 -94 0 c-67 0 -95 -4 -97 -12z" />
    <path d="M5614 2045 c-3 -8 -4 -131 -2 -272 3 -243 5 -261 26 -308 13 -27 39
-67 60 -88 36 -37 122 -77 166 -77 40 0 151 38 191 66 39 26 54 22 55 -17 0
-22 20 -26 118 -21 l82 4 -2 362 -3 361 -97 3 -98 3 -1 -238 c-1 -131 -4 -249
-8 -262 -3 -13 -23 -38 -44 -54 -32 -26 -45 -30 -96 -30 -68 0 -101 17 -131
66 -18 29 -20 52 -20 275 l0 242 -95 0 c-75 0 -97 -3 -101 -15z" />
    <path d="M3562 728 l3 -503 106 -3 c80 -2 109 1 117 11 7 9 13 78 14 191 l3
178 176 -1 c96 -1 183 1 192 5 14 5 17 21 17 95 l0 89 -197 2 -198 3 2 105 c1
58 2 111 2 118 1 9 52 12 221 12 l220 0 5 23 c3 12 5 56 3 97 l-3 75 -343 3
-342 2 2 -502z" />
    <path d="M6433 1163 c-9 -3 -13 -35 -13 -108 l0 -104 -52 -3 -53 -3 0 -65 c0
-65 0 -65 30 -68 80 -7 73 14 77 -234 3 -215 4 -225 28 -273 29 -57 63 -80
141 -95 52 -10 157 0 186 18 7 5 9 33 6 80 l-6 72 -43 0 c-52 0 -88 15 -103
44 -8 14 -11 80 -9 201 l3 180 75 5 75 5 0 65 0 65 -75 5 -75 5 -3 94 c-1 52
-8 101 -14 108 -10 13 -147 18 -175 6z" />
    <path d="M5045 956 c-110 -27 -184 -89 -234 -195 -24 -51 -26 -67 -26 -176 0
-111 2 -125 29 -182 105 -229 435 -271 600 -76 95 112 110 322 33 467 -72 136
-238 202 -402 162z m169 -171 c52 -34 71 -88 71 -200 0 -116 -17 -162 -70
-195 -42 -26 -110 -26 -152 0 -93 57 -114 268 -36 361 50 59 127 73 187 34z" />
    <path d="M5933 954 c-63 -16 -133 -50 -133 -64 0 -6 -7 -10 -15 -10 -10 0 -15
11 -15 35 l0 35 -95 0 -95 0 0 -365 0 -365 94 0 c82 0 95 2 99 17 2 10 2 119
0 243 -4 211 -3 227 15 256 41 63 153 89 209 48 46 -35 52 -68 52 -326 l1
-238 95 0 c92 0 95 1 101 25 3 13 4 138 2 277 -5 280 -12 315 -70 375 -55 57
-157 81 -245 57z" />
    <path d="M7452 959 c-193 -38 -319 -214 -298 -417 20 -195 149 -323 342 -339
105 -9 228 40 299 118 38 42 67 98 59 111 -3 5 -40 8 -82 8 -72 0 -80 -2 -131
-37 -48 -33 -61 -38 -112 -37 -66 1 -108 22 -150 74 -16 19 -31 50 -35 68 l-6
32 272 0 273 0 -5 78 c-13 183 -129 314 -305 342 -65 11 -62 11 -121 -1z m136
-159 c24 -11 49 -26 57 -34 18 -18 35 -60 35 -87 0 -18 -9 -19 -165 -19 -183
0 -190 3 -161 59 27 51 105 99 166 100 14 0 44 -8 68 -19z" />
    <path d="M4628 944 c-27 -8 -63 -30 -83 -49 -19 -19 -36 -35 -39 -35 -3 0 -6
19 -8 43 l-3 42 -100 0 -100 0 0 -360 0 -360 100 0 100 0 5 220 c4 198 7 224
25 255 29 49 76 70 158 70 l67 0 2 80 c0 44 1 86 2 93 1 18 -70 19 -126 1z" />
    <path d="M8288 942 c-26 -9 -63 -32 -82 -49 -19 -18 -37 -33 -40 -33 -3 0 -6
20 -6 45 l0 45 -100 0 -100 0 0 -365 0 -366 98 3 97 3 5 222 c5 204 7 224 26
249 39 53 69 68 152 74 l77 5 0 90 0 90 -40 2 c-22 2 -61 -5 -87 -15z" />
    <path d="M6878 923 c-4 -22 -3 -284 2 -675 l0 -28 95 0 95 0 0 365 0 365 -94
0 -93 0 -5 -27z" />
  </g>
</svg>