<?xml version="1.0"?><!DOCTYPE svg  PUBLIC '-//W3C//DTD SVG 1.1//EN'  'http://www.w3.org/Graphics/SVG/1.1/DTD/svg11.dtd'><svg height="512px" style="enable-background:new 0 0 512 512;" version="1.1" viewBox="0 0 512 512" width="512px" xml:space="preserve" xmlns="http://www.w3.org/2000/svg" xmlns:xlink="http://www.w3.org/1999/xlink"><g id="_x38_-wechat_x2C__messenger"><g><path d="M289.853,258.089c-8.687,0-15.729,7.038-15.729,15.716c0,8.685,7.043,15.724,15.729,15.724    c8.69,0,15.73-7.039,15.73-15.724C305.583,265.127,298.543,258.089,289.853,258.089z"/><path d="M258.393,184.732c8.686,0,15.73-7.036,15.73-15.719c0-8.679-7.045-15.72-15.73-15.72c-8.689,0-15.73,7.041-15.73,15.72    C242.662,177.696,249.703,184.732,258.393,184.732z"/><path d="M174.494,153.294c-8.686,0-15.73,7.041-15.73,15.72c0,8.683,7.045,15.719,15.73,15.719    c8.687,0,15.731-7.036,15.731-15.719C190.226,160.335,183.181,153.294,174.494,153.294z"/><path d="M352.774,258.089c-8.689,0-15.729,7.038-15.729,15.716c0,8.685,7.04,15.724,15.729,15.724    c8.69,0,15.73-7.039,15.73-15.724C368.505,265.127,361.465,258.089,352.774,258.089z"/><path d="M376,16H136C69.726,16,16,69.726,16,136v240c0,66.274,53.726,120,120,120h240c66.274,0,120-53.726,120-120V136    C496,69.726,442.274,16,376,16z M167.256,306.857l-45.197,19.346l16.591-33.157c-29.216-19.151-48.051-48.75-48.051-82.114    c0-57.868,56.335-104.791,125.847-104.791c61.412,0,112.483,36.654,123.555,85.11c-6.124-0.753-12.33-1.278-18.687-1.278    c-69.403,0-125.844,47.01-125.844,104.796c0,6.728,0.837,13.285,2.308,19.681C187.019,313.129,176.948,310.297,167.256,306.857z     M405.211,399.56l-56.527-24.204c-8.788,1.905-17.846,3.246-27.37,3.246c-57.91,0-104.868-37.537-104.868-83.833    c0-46.301,46.958-83.837,104.868-83.837c57.909,0,104.872,37.536,104.872,83.837c0,26.807-16.023,50.403-40.523,65.748    L405.211,399.56z"/></g></g><g id="Layer_1"/></svg>